<svg width="30" height="30" viewBox="0 0 30 30" fill="none" xmlns="http://www.w3.org/2000/svg">
<path d="M17.7484 15.0001L29.4298 3.31814C30.1901 2.55827 30.1901 1.32967 29.4298 0.569807C28.67 -0.190058 27.4414 -0.190058 26.6816 0.569807L14.9998 12.2518L3.31842 0.569807C2.55822 -0.190058 1.33 -0.190058 0.570154 0.569807C-0.190051 1.32967 -0.190051 2.55827 0.570154 3.31814L12.2516 15.0001L0.570154 26.6821C-0.190051 27.442 -0.190051 28.6706 0.570154 29.4305C0.948833 29.8095 1.44674 29.9999 1.94429 29.9999C2.44184 29.9999 2.93939 29.8095 3.31842 29.4305L14.9998 17.7485L26.6816 29.4305C27.0606 29.8095 27.5582 29.9999 28.0557 29.9999C28.5533 29.9999 29.0508 29.8095 29.4298 29.4305C30.1901 28.6706 30.1901 27.442 29.4298 26.6821L17.7484 15.0001Z" fill="black"/>
</svg>
